<?xml version="1.0" encoding="UTF-8" standalone="no"?>
<svg
   xmlns:dc="http://purl.org/dc/elements/1.1/"
   xmlns:cc="http://creativecommons.org/ns#"
   xmlns:rdf="http://www.w3.org/1999/02/22-rdf-syntax-ns#"
   xmlns:svg="http://www.w3.org/2000/svg"
   xmlns="http://www.w3.org/2000/svg"
   xmlns:sodipodi="http://sodipodi.sourceforge.net/DTD/sodipodi-0.dtd"
   xmlns:inkscape="http://www.inkscape.org/namespaces/inkscape"
   id="Component_8_2"
   data-name="Component 8 – 2"
   width="270.89801"
   height="272.54099"
   viewBox="0 0 270.89801 272.541"
   version="1.1"
   sodipodi:docname="frictionless-color-logo.svg"
   inkscape:version="0.92.4 (unknown)">
  <metadata
     id="metadata202">
    <rdf:RDF>
      <cc:Work
         rdf:about="">
        <dc:format>image/svg+xml</dc:format>
        <dc:type
           rdf:resource="http://purl.org/dc/dcmitype/StillImage" />
        <dc:title></dc:title>
      </cc:Work>
    </rdf:RDF>
  </metadata>
  <defs
     id="defs200" />
  <sodipodi:namedview
     pagecolor="#ffffff"
     bordercolor="#666666"
     borderopacity="1"
     objecttolerance="10"
     gridtolerance="10"
     guidetolerance="10"
     inkscape:pageopacity="0"
     inkscape:pageshadow="2"
     inkscape:window-width="1853"
     inkscape:window-height="1025"
     id="namedview198"
     showgrid="false"
     inkscape:zoom="1.5913734"
     inkscape:cx="309.16691"
     inkscape:cy="190.59895"
     inkscape:window-x="67"
     inkscape:window-y="27"
     inkscape:window-maximized="1"
     inkscape:current-layer="Group_211" />
  <g
     id="Group_211"
     data-name="Group 211"
     transform="translate(-73.862,-38.48464)">
    <ellipse
       id="Ellipse_338"
       data-name="Ellipse 338"
       cx="119.5"
       cy="120.5"
       rx="119.5"
       ry="120.5"
       transform="translate(91.939,53.767)"
       style="fill:#000001" />
    <ellipse
       style="fill:none;stroke:none;stroke-width:30"
       id="ellipse173"
       ry="136"
       rx="135"
       cy="174.767"
       cx="209.939" />
    <ellipse
       style="fill:none;stroke:#ea6d4c;stroke-width:30;stroke-opacity:1"
       id="ellipse175"
       ry="121"
       rx="120"
       cy="174.767"
       cx="209.939" />
    <path
       id="Path_1328"
       data-name="Path 1328"
       d="M 1771.391,519.724 C 1721.715,503.659 1669.967,382.637 1579.134,349 c 0.035,0.016 0.486,-0.266 0.627,0.05 0.345,0.19 -0.371,0.986 -1.382,2.243 -0.406,0.506 -1.212,1.478 -2.063,2.677 -0.7,0.993 -1.061,1.428 -1.663,2.279 -0.257,0.365 -0.758,1.143 -1.436,2.051 -0.26,0.348 -1.531,2.356 -2.227,3.324 -0.133,0.184 -0.218,0.308 -0.448,0.686 -0.017,0.008 -0.078,0.169 -0.571,0.986 -0.645,1.07 -1.256,2.015 -2.38,4 -1.124,1.985 -0.569,1.017 -1.383,2.472 l -0.133,0.242 c -0.682,1.216 -1.2,2.282 -1.246,2.292 -1.216,0.284 0.59,0.661 3.376,1.3 89.449,20.574 143.6,97.071 194.692,113.6 10.927,3.534 29.422,1.692 47.1,-0.856 0.8,-0.115 0.264,0.512 -0.228,1.552 -0.226,0.477 -0.364,0.911 -0.755,1.722 -0.141,0.324 -0.435,0.986 -0.435,0.986 l -1.366,2.924 -2.928,5.7 -2.71,4.77 c 0,0 -0.914,1.547 -2.229,3.6 -1.236,1.928 -3.023,4.585 -4.2,6.229 -1.222,1.667 -2.92,3.864 -3.849,5.089 l -1.123,1.407 c -0.689,0.957 -1.112,1.021 -1.118,1.021 a 43.2,43.2 0 0 1 -17.665,-1.622 z"
       transform="matrix(0.819,-0.574,0.574,0.819,-1419.776,785.093)"
       inkscape:connector-curvature="0"
       style="fill:#ffffff" />
  </g>
</svg>
