<?xml version="1.0" encoding="UTF-8" standalone="no"?>
<svg
   width="74"
   height="74"
   viewBox="0 0 74 74"
   fill="none"
   version="1.1"
   id="svg17"
   sodipodi:docname="favicon.svg"
   inkscape:version="1.4.2 (1:1.4.2+202505120737+ebf0e940d0)"
   xmlns:inkscape="http://www.inkscape.org/namespaces/inkscape"
   xmlns:sodipodi="http://sodipodi.sourceforge.net/DTD/sodipodi-0.dtd"
   xmlns="http://www.w3.org/2000/svg"
   xmlns:svg="http://www.w3.org/2000/svg">
  <sodipodi:namedview
     id="namedview17"
     pagecolor="#ffffff"
     bordercolor="#000000"
     borderopacity="0.25"
     inkscape:showpageshadow="2"
     inkscape:pageopacity="0.0"
     inkscape:pagecheckerboard="0"
     inkscape:deskcolor="#d1d1d1"
     inkscape:zoom="6.9189189"
     inkscape:cx="41.263672"
     inkscape:cy="33.169922"
     inkscape:window-width="1920"
     inkscape:window-height="1108"
     inkscape:window-x="0"
     inkscape:window-y="53"
     inkscape:window-maximized="1"
     inkscape:current-layer="svg17" />
  <path
     d="m 21.0443,18.4934 12.138,12.2855 H 16 V 44.2211 H 33.1429 L 21.0049,56.5066 30.3842,66 40,56.2673 V 44.2211 C 37.1232,40.1924 37.1232,34.7677 40,30.739 V 18.7327 L 30.3842,9 Z"
     fill="#ffffff"
     id="path12" />
  <path
     d="M 45,48 V 28 h 7.0431 C 56.6715,28 59,29.9225 59,33.8824 c 0,3.9885 -2.386,6.0832 -6.9569,6.0832 H 49.4846 V 48 Z m 4.4846,-12.1664 h 2.0986 c 1.8398,0 2.9035,-0.287 2.9035,-1.8939 0,-1.5208 -0.92,-1.8077 -2.9035,-1.8077 h -2.0986 z"
     fill="#ffffff"
     id="path13" />
  <rect
     width="74.132812"
     height="74"
     rx="6.9190626"
     fill="#00d1ff"
     id="rect13"
     x="0"
     y="0"
     style="stroke-width:0.994202" />
  <rect
     width="74.132812"
     height="74"
     rx="6.9190626"
     fill="url(#paint0_linear_1339_524)"
     id="rect14"
     x="0"
     y="0"
     style="fill:url(#paint0_linear_1339_524);stroke-width:0.994202" />
  <path
     d="m 12.0443,18.4934 12.138,12.2855 H 7 V 44.2211 H 24.1429 L 12.0049,56.5066 21.3842,66 31,56.2673 V 44.2211 C 28.1232,40.1924 28.1232,34.7677 31,30.739 V 18.7327 L 21.3842,9 Z"
     fill="#ffffff"
     id="path14" />
  <path
     d="M 56,48 V 28 h 7.2083 c 4.737,0 7.1201,1.9225 7.1201,5.8824 0,3.9885 -2.442,6.0832 -7.1201,6.0832 H 60.5898 V 48 Z m 4.5898,-12.1664 h 2.1478 c 1.883,0 2.9716,-0.287 2.9716,-1.8939 0,-1.5208 -0.9415,-1.8077 -2.9716,-1.8077 h -2.1478 z"
     fill="#ffffff"
     id="path15" />
  <path
     d="M 36,48 V 28 h 6.1872 C 49.052,28 53,31.6729 53,38.1578 53,44.528 49.1698,48 42.1577,48 Z m 4.6256,-4.132 h 1.0607 c 4.1837,0 6.6586,-1.0617 6.6586,-5.8823 0,-4.6485 -2.3865,-5.8537 -6.2461,-5.8537 h -1.4732 z"
     fill="#ffffff"
     id="path16" />
  <defs
     id="defs17">
    <linearGradient
       id="paint0_linear_1339_524"
       x1="75"
       y1="-2.2653801e-06"
       x2="-4.68493e-07"
       y2="74"
       gradientUnits="userSpaceOnUse"
       gradientTransform="scale(0.9884375,1)">
      <stop
         offset="0.239583"
         stop-color="#00D1FF"
         id="stop16"
         style="stop-color:#1a71c2;stop-opacity:1;" />
      <stop
         offset="1"
         stop-color="#AEFFEC"
         id="stop17"
         style="stop-color:#d8ebf4;stop-opacity:1;" />
    </linearGradient>
  </defs>
</svg>
