<svg width="913" height="273" viewBox="0 0 913 273" fill="none" xmlns="http://www.w3.org/2000/svg">
<path d="M352.836 114.366V37.2246H407.51V49.9523H366.67V68.3245H402.64V81.0522H366.67V114.366H352.836Z" fill="black"/>
<path d="M442.073 58.6957C445.725 58.6957 448.934 59.5811 452.476 61.7946L446.057 73.5262C444.175 72.3088 442.073 71.6447 439.416 71.6447C431.337 71.6447 427.353 76.6251 427.353 86.918V114.366H414.072V59.8024H427.463V69.0992C429.788 62.348 435.875 58.6957 442.073 58.6957Z" fill="black"/>
<path d="M458.918 49.5096V37.2246H472.863V49.5096H458.918ZM459.25 114.366V59.8024H472.531V114.366H459.25Z" fill="black"/>
<path d="M509.692 115.472C491.873 115.472 483.24 101.638 483.24 87.25C483.24 72.8622 491.762 58.6957 509.581 58.6957C520.427 58.6957 528.949 63.8974 533.155 74.7437L520.538 79.7241C519.099 73.9689 515.004 70.3166 509.581 70.3166C500.395 70.3166 496.854 78.6173 496.854 87.25C496.854 95.8827 500.284 103.851 509.581 103.851C514.894 103.851 519.099 100.31 520.538 94.6653L532.602 99.3137C528.949 109.496 520.538 115.472 509.692 115.472Z" fill="black"/>
<path d="M571.797 70.3166H558.183V98.0962C558.183 102.413 560.84 104.405 565.156 104.405C567.037 104.405 569.362 103.962 571.797 103.187V113.812C568.476 114.919 565.156 115.472 561.836 115.472C552.65 115.472 544.902 110.713 544.902 99.0923V70.3166H536.048V59.8024H544.902V49.2883L558.183 39.4381V59.8024H571.797V70.3166Z" fill="black"/>
<path d="M583.104 49.5096V37.2246H597.049V49.5096H583.104ZM583.436 114.366V59.8024H596.717V114.366H583.436Z" fill="black"/>
<path d="M634.653 115.472C617.719 115.472 607.316 102.413 607.316 87.0287C607.316 71.5341 617.719 58.6957 634.653 58.6957C651.475 58.6957 661.989 71.5341 661.989 87.0287C661.989 102.413 651.475 115.472 634.653 115.472ZM634.653 103.851C644.724 103.851 648.708 95.8827 648.708 87.0287C648.708 78.0639 644.724 70.3166 634.653 70.3166C624.581 70.3166 620.597 78.0639 620.597 87.0287C620.597 95.8827 624.581 103.851 634.653 103.851Z" fill="black"/>
<path d="M702.375 58.6957C714.66 58.6957 721.632 66.2216 721.632 79.1707V114.366H708.351V82.491C708.351 78.728 708.351 70.3166 698.28 70.3166C685.884 70.3166 685.884 82.823 685.884 92.5624V114.366H672.603V59.8024H685.884V66.111C689.758 60.9092 695.734 58.6957 702.375 58.6957Z" fill="black"/>
<path d="M748.224 115.472C740.809 115.472 735.386 111.045 735.386 101.306V37.2246H748.667V100.42C748.667 102.855 750.105 103.851 752.54 103.851C753.758 103.851 755.197 103.63 756.746 103.187V113.812C753.758 114.919 750.769 115.472 748.224 115.472Z" fill="black"/>
<path d="M813.226 86.3646C813.226 88.0247 813.115 89.6849 812.894 91.4557H775.486C776.039 98.6496 780.466 103.409 789.099 103.409C793.968 103.409 798.395 101.859 802.158 97.5429L811.345 105.622C805.368 112.263 798.174 115.472 788.988 115.472C770.173 115.472 762.205 101.97 762.205 87.3607C762.205 73.0835 769.952 58.6957 788.103 58.6957C805.036 58.6957 813.226 71.202 813.226 86.3646ZM775.375 80.9415H800.498C800.277 73.9689 794.965 69.7633 787.992 69.7633C779.913 69.7633 776.15 75.5184 775.375 80.9415Z" fill="black"/>
<path d="M841.288 115.472C829.778 115.472 821.035 108.5 818.378 100.199L829.003 95.44C830.442 99.4243 833.32 104.405 840.624 104.405C846.822 104.405 849.478 100.863 849.478 97.9856C849.478 88.7995 821.367 94.8866 821.367 74.633C821.367 64.1188 830.885 58.6957 841.399 58.6957C850.806 58.6957 858 63.1227 862.095 70.538L851.803 76.1824C849.921 72.7515 846.933 69.2099 840.956 69.2099C836.64 69.2099 833.984 71.3127 833.984 73.8583C833.984 82.1589 862.538 77.2892 862.538 97.2108C862.538 109.939 851.581 115.472 841.288 115.472Z" fill="black"/>
<path d="M890.898 115.472C879.388 115.472 870.644 108.5 867.988 100.199L878.613 95.44C880.052 99.4243 882.929 104.405 890.234 104.405C896.432 104.405 899.088 100.863 899.088 97.9856C899.088 88.7995 870.976 94.8866 870.976 74.633C870.976 64.1188 880.494 58.6957 891.009 58.6957C900.416 58.6957 907.61 63.1227 911.705 70.538L901.412 76.1824C899.531 72.7515 896.542 69.2099 890.566 69.2099C886.25 69.2099 883.593 71.3127 883.593 73.8583C883.593 82.1589 912.148 77.2892 912.148 97.2108C912.148 109.939 901.191 115.472 890.898 115.472Z" fill="black"/>
<path d="M371.538 158.637C394.669 158.637 402.637 176.677 402.637 197.373C402.637 218.07 394.337 236.11 371.538 236.11H351.062V158.637H371.538ZM371.205 227.588C389.024 227.588 393.23 212.757 393.23 197.373C393.23 181.989 389.024 167.159 371.205 167.159H360.47V227.588H371.205Z" fill="black"/>
<path d="M463.659 227.92H471.517V236.11H457.903L454.583 229.691C451.152 234.671 445.397 237.216 437.982 237.216C426.804 237.216 419.278 231.572 419.278 221.279C419.278 199.144 454.472 213.2 454.472 201.358V201.026C454.472 196.156 451.152 191.286 443.073 191.286C435.879 191.286 431.784 195.16 429.57 201.136L421.823 197.152C426.25 186.416 434.994 182.985 443.294 182.985C455.469 182.985 463.659 190.29 463.659 201.468V227.92ZM438.314 228.916C450.931 228.916 454.472 221.611 454.472 217.184V210.433C445.618 214.971 428.464 210.765 428.464 221.611C428.464 228.141 434.219 228.916 438.314 228.916Z" fill="black"/>
<path d="M528.664 219.066L536.411 222.939C533.202 232.125 527.115 237.216 517.043 237.216C504.869 237.216 497.786 229.801 497.786 217.184V192.393H483.84V184.092H497.786V165.499H506.972V184.092H533.866V192.393H506.972V215.745C506.972 220.062 506.972 228.916 517.154 228.916C524.348 228.916 526.451 224.599 528.664 219.066Z" fill="black"/>
<path d="M598.761 227.92H606.619V236.11H593.006L589.685 229.691C586.254 234.671 580.499 237.216 573.084 237.216C561.906 237.216 554.38 231.572 554.38 221.279C554.38 199.144 589.575 213.2 589.575 201.358V201.026C589.575 196.156 586.254 191.286 578.175 191.286C570.981 191.286 566.886 195.16 564.673 201.136L556.925 197.152C561.352 186.416 570.096 182.985 578.396 182.985C590.571 182.985 598.761 190.29 598.761 201.468V227.92ZM573.416 228.916C586.033 228.916 589.575 221.611 589.575 217.184V210.433C580.721 214.971 563.566 210.765 563.566 221.611C563.566 228.141 569.321 228.916 573.416 228.916Z" fill="black"/>
<rect width="276.689" height="273" rx="7" fill="url(#paint0_linear_915_2)"/>
<path d="M70.2579 68.2259L115.037 113.549H51.6484V163.141H114.892L70.1126 208.464L104.715 243.487L140.189 207.581V163.141C129.576 148.278 129.576 128.265 140.189 113.402V69.1088L104.715 33.2031L70.2579 68.2259Z" fill="white"/>
<path d="M158.635 177.082V99.6094H213.973V115.615H175.771V128.954H209.498V145.071H175.771V177.082H158.635Z" fill="white"/>
<defs>
<linearGradient id="paint0_linear_915_2" x1="276.689" y1="-8.35741e-06" x2="-1.23068e-05" y2="273" gradientUnits="userSpaceOnUse">
<stop offset="0.239583" stop-color="#00D1FF"/>
<stop offset="1" stop-color="#AEFFEC"/>
</linearGradient>
</defs>
</svg>
